<svg width="1239" height="1024" viewBox="0 0 1239 1024" fill="none" xmlns="http://www.w3.org/2000/svg">
<circle cx="4" cy="259" r="4" fill="#E6F0FF"/>
<circle cx="24" cy="259" r="4" fill="#E6F0FF"/>
<circle cx="44" cy="259" r="4" fill="#E6F0FF"/>
<circle cx="64" cy="259" r="4" fill="#E6F0FF"/>
<circle cx="84" cy="259" r="4" fill="#E6F0FF"/>
<circle cx="104" cy="259" r="4" fill="#E6F0FF"/>
<circle cx="124" cy="259" r="4" fill="#E6F0FF"/>
<circle cx="144" cy="259" r="4" fill="#E6F0FF"/>
<circle cx="4" cy="279" r="4" fill="#E6F0FF"/>
<circle cx="24" cy="279" r="4" fill="#E6F0FF"/>
<circle cx="44" cy="279" r="4" fill="#E6F0FF"/>
<circle cx="64" cy="279" r="4" fill="#E6F0FF"/>
<circle cx="84" cy="279" r="4" fill="#E6F0FF"/>
<circle cx="104" cy="279" r="4" fill="#E6F0FF"/>
<circle cx="124" cy="279" r="4" fill="#E6F0FF"/>
<circle cx="144" cy="279" r="4" fill="#E6F0FF"/>
<circle cx="4" cy="299" r="4" fill="#E6F0FF"/>
<circle cx="24" cy="299" r="4" fill="#E6F0FF"/>
<circle cx="44" cy="299" r="4" fill="#E6F0FF"/>
<circle cx="64" cy="299" r="4" fill="#E6F0FF"/>
<circle cx="84" cy="299" r="4" fill="#E6F0FF"/>
<circle cx="104" cy="299" r="4" fill="#E6F0FF"/>
<circle cx="124" cy="299" r="4" fill="#E6F0FF"/>
<circle cx="144" cy="299" r="4" fill="#E6F0FF"/>
<circle cx="4" cy="319" r="4" fill="#E6F0FF"/>
<circle cx="24" cy="319" r="4" fill="#E6F0FF"/>
<circle cx="44" cy="319" r="4" fill="#E6F0FF"/>
<circle cx="64" cy="319" r="4" fill="#E6F0FF"/>
<circle cx="84" cy="319" r="4" fill="#E6F0FF"/>
<circle cx="104" cy="319" r="4" fill="#E6F0FF"/>
<circle cx="124" cy="319" r="4" fill="#E6F0FF"/>
<circle cx="144" cy="319" r="4" fill="#E6F0FF"/>
<circle cx="4" cy="339" r="4" fill="#E6F0FF"/>
<circle cx="24" cy="339" r="4" fill="#E6F0FF"/>
<circle cx="44" cy="339" r="4" fill="#E6F0FF"/>
<circle cx="64" cy="339" r="4" fill="#E6F0FF"/>
<circle cx="84" cy="339" r="4" fill="#E6F0FF"/>
<circle cx="104" cy="339" r="4" fill="#E6F0FF"/>
<circle cx="124" cy="339" r="4" fill="#E6F0FF"/>
<circle cx="144" cy="339" r="4" fill="#E6F0FF"/>
<circle cx="4" cy="359" r="4" fill="#E6F0FF"/>
<circle cx="24" cy="359" r="4" fill="#E6F0FF"/>
<circle cx="44" cy="359" r="4" fill="#E6F0FF"/>
<circle cx="64" cy="359" r="4" fill="#E6F0FF"/>
<circle cx="84" cy="359" r="4" fill="#E6F0FF"/>
<circle cx="104" cy="359" r="4" fill="#E6F0FF"/>
<circle cx="124" cy="359" r="4" fill="#E6F0FF"/>
<circle cx="144" cy="359" r="4" fill="#E6F0FF"/>
<circle cx="4" cy="379" r="4" fill="#E6F0FF"/>
<circle cx="24" cy="379" r="4" fill="#E6F0FF"/>
<circle cx="44" cy="379" r="4" fill="#E6F0FF"/>
<circle cx="64" cy="379" r="4" fill="#E6F0FF"/>
<circle cx="84" cy="379" r="4" fill="#E6F0FF"/>
<circle cx="104" cy="379" r="4" fill="#E6F0FF"/>
<circle cx="124" cy="379" r="4" fill="#E6F0FF"/>
<circle cx="144" cy="379" r="4" fill="#E6F0FF"/>
<circle cx="4" cy="399" r="4" fill="#E6F0FF"/>
<circle cx="24" cy="399" r="4" fill="#E6F0FF"/>
<circle cx="44" cy="399" r="4" fill="#E6F0FF"/>
<circle cx="64" cy="399" r="4" fill="#E6F0FF"/>
<circle cx="84" cy="399" r="4" fill="#E6F0FF"/>
<circle cx="104" cy="399" r="4" fill="#E6F0FF"/>
<circle cx="124" cy="399" r="4" fill="#E6F0FF"/>
<circle cx="144" cy="399" r="4" fill="#E6F0FF"/>
<g filter="url(#filter0_f_0_1)">
<ellipse cx="660.5" cy="627" rx="182.5" ry="182" fill="#0066FF" fill-opacity="0.12"/>
</g>
<g filter="url(#filter1_f_0_1)">
<circle cx="917" cy="706" r="84" fill="#26DEE3"/>
</g>
<g filter="url(#filter2_f_0_1)">
<circle cx="829" cy="423" r="124" fill="#CCE0FF" fill-opacity="0.5"/>
</g>
<path d="M1026 472C1026 526.688 1008.62 579.961 976.376 624.13C944.13 668.299 898.682 701.078 846.594 717.738C794.505 734.397 738.471 734.074 686.578 716.815C634.685 699.556 589.619 666.254 557.883 621.717C526.148 577.179 509.387 523.709 510.017 469.025C510.648 414.341 528.638 361.272 561.392 317.478C594.146 273.683 639.968 241.43 692.245 225.372C744.522 209.315 800.55 210.284 852.24 228.14L820.54 319.905C788.301 308.768 753.357 308.164 720.752 318.179C688.147 328.194 659.568 348.31 639.139 375.625C618.711 402.939 607.49 436.038 607.097 470.144C606.703 504.251 617.158 537.6 636.951 565.378C656.744 593.156 684.852 613.926 717.217 624.691C749.583 635.455 784.531 635.656 817.019 625.266C849.506 614.876 877.852 594.431 897.964 566.883C918.076 539.335 928.914 506.109 928.914 472H1026Z" fill="#CCE0FF" fill-opacity="0.4"/>
<g filter="url(#filter3_d_0_1)">
<rect x="555" y="226.677" width="115.092" height="115.092" rx="30" fill="white"/>
<g filter="url(#filter4_d_0_1)">
<path d="M567.788 284.223C567.788 272.353 572.504 260.968 580.897 252.574C589.291 244.181 600.675 239.465 612.546 239.465C624.416 239.465 635.801 244.181 644.195 252.574C652.588 260.968 657.304 272.353 657.304 284.223L641.191 284.223C641.191 276.626 638.173 269.34 632.801 263.968C627.429 258.596 620.143 255.578 612.546 255.578C604.949 255.578 597.663 258.596 592.291 263.968C586.919 269.34 583.901 276.626 583.901 284.223L567.788 284.223Z" fill="#E6F0FF"/>
</g>
<path d="M567.788 284.223C567.788 275.1 570.576 266.195 575.778 258.701C580.98 251.207 588.348 245.481 596.895 242.291C605.442 239.101 614.759 238.599 623.599 240.852C632.44 243.105 640.38 248.005 646.358 254.897L634.186 265.454C630.36 261.044 625.278 257.907 619.62 256.465C613.962 255.023 607.999 255.345 602.529 257.386C597.059 259.428 592.344 263.093 589.014 267.889C585.685 272.685 583.901 278.384 583.901 284.223L567.788 284.223Z" fill="#0066FF"/>
<path d="M567.788 284.223C567.788 274.182 571.165 264.432 577.375 256.541L590.037 266.507C586.062 271.557 583.901 277.797 583.901 284.223L567.788 284.223Z" fill="#3385FF"/>
<g clip-path="url(#clip0_0_1)">
<path d="M588.209 322.302L583.29 327.192C582.624 327.853 582.292 328.183 581.879 328.183C581.467 328.183 581.134 327.853 580.469 327.192L580.31 327.033C579.644 326.371 579.312 326.04 578.899 326.04C578.486 326.041 578.153 326.372 577.488 327.034L574.876 329.635M588.209 322.302V325.999M588.209 322.302H584.488" stroke="#18C165" stroke-width="2" stroke-linecap="round" stroke-linejoin="round"/>
</g>
<path d="M599.759 323.087L596.591 326.003L595.583 325.295L598.655 322.475L598.391 323.219H594.191V321.863H599.759V323.087ZM596.651 326.291H595.583V325.295C595.735 325.175 595.935 325.095 596.183 325.055C596.431 325.007 596.663 324.983 596.879 324.983C597.295 324.983 597.691 325.047 598.067 325.175C598.443 325.303 598.775 325.491 599.063 325.739C599.359 325.979 599.591 326.279 599.759 326.639C599.927 326.991 600.011 327.395 600.011 327.851C600.011 328.451 599.871 328.971 599.591 329.411C599.311 329.851 598.927 330.191 598.439 330.431C597.959 330.671 597.423 330.791 596.831 330.791C596.255 330.791 595.735 330.679 595.271 330.455C594.815 330.223 594.451 329.887 594.179 329.447C593.915 329.007 593.783 328.471 593.783 327.839H595.295C595.295 328.343 595.435 328.735 595.715 329.015C596.003 329.287 596.383 329.423 596.855 329.423C597.335 329.423 597.719 329.279 598.007 328.991C598.303 328.695 598.451 328.307 598.451 327.827C598.451 327.387 598.303 327.023 598.007 326.735C597.711 326.439 597.259 326.291 596.651 326.291ZM600.879 328.151C600.879 327.551 601.055 327.039 601.407 326.615C601.767 326.183 602.235 325.911 602.811 325.799L602.823 326.075C602.303 325.939 601.899 325.695 601.611 325.343C601.331 324.991 601.191 324.563 601.191 324.059C601.191 323.595 601.319 323.187 601.575 322.835C601.831 322.483 602.187 322.207 602.643 322.007C603.107 321.807 603.639 321.707 604.239 321.707C604.839 321.707 605.363 321.807 605.811 322.007C606.267 322.199 606.619 322.475 606.867 322.835C607.123 323.187 607.251 323.603 607.251 324.083C607.251 324.587 607.107 325.015 606.819 325.367C606.531 325.711 606.127 325.943 605.607 326.063L605.595 325.811C605.987 325.867 606.331 326.007 606.627 326.231C606.923 326.447 607.151 326.719 607.311 327.047C607.479 327.375 607.563 327.743 607.563 328.151C607.563 328.679 607.423 329.143 607.143 329.543C606.871 329.935 606.483 330.239 605.979 330.455C605.483 330.671 604.895 330.779 604.215 330.779C603.543 330.779 602.955 330.671 602.451 330.455C601.955 330.239 601.567 329.935 601.287 329.543C601.015 329.143 600.879 328.679 600.879 328.151ZM602.379 328.043C602.379 328.323 602.451 328.567 602.595 328.775C602.747 328.983 602.959 329.143 603.231 329.255C603.511 329.367 603.843 329.423 604.227 329.423C604.595 329.423 604.915 329.367 605.187 329.255C605.467 329.143 605.679 328.987 605.823 328.787C605.975 328.579 606.051 328.331 606.051 328.043C606.051 327.619 605.883 327.283 605.547 327.035C605.219 326.787 604.775 326.663 604.215 326.663C603.655 326.663 603.207 326.787 602.871 327.035C602.543 327.283 602.379 327.619 602.379 328.043ZM602.583 324.191C602.583 324.551 602.731 324.843 603.027 325.067C603.323 325.283 603.719 325.391 604.215 325.391C604.703 325.391 605.091 325.283 605.379 325.067C605.675 324.851 605.823 324.563 605.823 324.203C605.823 323.835 605.675 323.547 605.379 323.339C605.091 323.123 604.703 323.015 604.215 323.015C603.719 323.015 603.323 323.123 603.027 323.339C602.731 323.547 602.583 323.831 602.583 324.191ZM613.054 323.999C613.054 324.447 612.954 324.847 612.754 325.199C612.562 325.543 612.294 325.815 611.95 326.015C611.606 326.207 611.21 326.303 610.762 326.303C610.322 326.303 609.926 326.207 609.574 326.015C609.23 325.815 608.958 325.543 608.758 325.199C608.566 324.847 608.47 324.447 608.47 323.999C608.47 323.551 608.566 323.155 608.758 322.811C608.958 322.459 609.23 322.187 609.574 321.995C609.926 321.795 610.322 321.695 610.762 321.695C611.21 321.695 611.606 321.795 611.95 321.995C612.294 322.187 612.562 322.459 612.754 322.811C612.954 323.155 613.054 323.551 613.054 323.999ZM611.89 323.999C611.89 323.655 611.786 323.375 611.578 323.159C611.37 322.935 611.098 322.823 610.762 322.823C610.426 322.823 610.154 322.935 609.946 323.159C609.746 323.375 609.646 323.655 609.646 323.999C609.646 324.343 609.746 324.627 609.946 324.851C610.154 325.075 610.426 325.187 610.762 325.187C611.098 325.187 611.37 325.075 611.578 324.851C611.786 324.627 611.89 324.343 611.89 323.999ZM617.866 321.875L611.206 330.635H609.742L616.402 321.875H617.866ZM619.15 328.487C619.15 328.935 619.05 329.335 618.85 329.687C618.658 330.031 618.39 330.303 618.046 330.503C617.71 330.695 617.318 330.791 616.87 330.791C616.422 330.791 616.026 330.695 615.682 330.503C615.338 330.303 615.066 330.031 614.866 329.687C614.674 329.335 614.578 328.935 614.578 328.487C614.578 328.039 614.674 327.643 614.866 327.299C615.066 326.947 615.338 326.675 615.682 326.483C616.026 326.283 616.422 326.183 616.87 326.183C617.318 326.183 617.71 326.283 618.046 326.483C618.39 326.675 618.658 326.947 618.85 327.299C619.05 327.643 619.15 328.039 619.15 328.487ZM617.986 328.487C617.986 328.135 617.882 327.851 617.674 327.635C617.474 327.419 617.206 327.311 616.87 327.311C616.534 327.311 616.262 327.419 616.054 327.635C615.846 327.851 615.742 328.135 615.742 328.487C615.742 328.831 615.846 329.115 616.054 329.339C616.262 329.555 616.534 329.663 616.87 329.663C617.198 329.663 617.466 329.555 617.674 329.339C617.882 329.115 617.986 328.831 617.986 328.487Z" fill="#18C165"/>
<path d="M623.047 324.299C623.047 323.803 623.171 323.367 623.419 322.991C623.667 322.615 624.015 322.323 624.463 322.115C624.919 321.907 625.443 321.803 626.035 321.803C626.587 321.803 627.067 321.903 627.475 322.103C627.891 322.295 628.215 322.571 628.447 322.931C628.687 323.291 628.823 323.723 628.855 324.227H627.667C627.635 323.795 627.475 323.459 627.187 323.219C626.899 322.979 626.511 322.859 626.023 322.859C625.479 322.859 625.043 322.987 624.715 323.243C624.387 323.491 624.223 323.831 624.223 324.263C624.223 324.615 624.323 324.899 624.523 325.115C624.723 325.323 625.027 325.475 625.435 325.571L626.863 325.907C627.575 326.067 628.107 326.343 628.459 326.735C628.819 327.119 628.999 327.615 628.999 328.223C628.999 328.743 628.871 329.195 628.615 329.579C628.367 329.963 628.011 330.259 627.547 330.467C627.091 330.675 626.555 330.779 625.939 330.779C625.355 330.779 624.839 330.683 624.391 330.491C623.951 330.291 623.603 330.011 623.347 329.651C623.099 329.283 622.959 328.855 622.927 328.367H624.127C624.135 328.783 624.303 329.115 624.631 329.363C624.959 329.603 625.395 329.723 625.939 329.723C626.515 329.723 626.971 329.595 627.307 329.339C627.651 329.083 627.823 328.743 627.823 328.319C627.823 327.975 627.727 327.695 627.535 327.479C627.343 327.263 627.039 327.107 626.623 327.011L625.195 326.687C624.491 326.527 623.955 326.247 623.587 325.847C623.227 325.439 623.047 324.923 623.047 324.299ZM632 330.779C631.376 330.779 630.884 330.615 630.524 330.287C630.172 329.959 629.996 329.531 629.996 329.003C629.996 328.467 630.188 328.039 630.572 327.719C630.956 327.391 631.492 327.199 632.18 327.143L634.028 326.999V326.831C634.028 326.503 633.968 326.243 633.848 326.051C633.728 325.851 633.564 325.711 633.356 325.631C633.148 325.543 632.912 325.499 632.648 325.499C632.176 325.499 631.808 325.599 631.544 325.799C631.288 325.991 631.16 326.267 631.16 326.627H630.176C630.176 326.219 630.28 325.863 630.488 325.559C630.696 325.255 630.988 325.019 631.364 324.851C631.748 324.683 632.192 324.599 632.696 324.599C633.184 324.599 633.608 324.687 633.968 324.863C634.336 325.031 634.62 325.291 634.82 325.643C635.028 325.987 635.132 326.423 635.132 326.951V330.635H634.172L634.052 329.687C633.9 330.023 633.636 330.291 633.26 330.491C632.892 330.683 632.472 330.779 632 330.779ZM632.324 329.903C632.86 329.903 633.28 329.743 633.584 329.423C633.888 329.095 634.04 328.655 634.04 328.103V327.791L632.54 327.911C632.044 327.959 631.684 328.075 631.46 328.259C631.244 328.443 631.136 328.679 631.136 328.967C631.136 329.279 631.24 329.515 631.448 329.675C631.664 329.827 631.956 329.903 632.324 329.903ZM637.847 330.635H636.719V321.803H637.847V330.635ZM642.039 330.779C641.471 330.779 640.967 330.651 640.527 330.395C640.087 330.131 639.743 329.771 639.495 329.315C639.247 328.851 639.123 328.315 639.123 327.707C639.123 327.091 639.243 326.551 639.483 326.087C639.731 325.623 640.067 325.259 640.491 324.995C640.923 324.731 641.423 324.599 641.991 324.599C642.551 324.599 643.035 324.719 643.443 324.959C643.859 325.199 644.179 325.535 644.403 325.967C644.635 326.399 644.751 326.907 644.751 327.491V327.911L639.723 327.923L639.747 327.167H643.623C643.623 326.679 643.475 326.287 643.179 325.991C642.883 325.695 642.487 325.547 641.991 325.547C641.615 325.547 641.291 325.631 641.019 325.799C640.755 325.959 640.551 326.199 640.407 326.519C640.271 326.831 640.203 327.207 640.203 327.647C640.203 328.351 640.363 328.895 640.683 329.279C641.003 329.655 641.463 329.843 642.063 329.843C642.503 329.843 642.863 329.755 643.143 329.579C643.423 329.403 643.611 329.147 643.707 328.811H644.763C644.619 329.435 644.311 329.919 643.839 330.263C643.367 330.607 642.767 330.779 642.039 330.779ZM645.531 328.931H646.611C646.611 329.227 646.719 329.463 646.935 329.639C647.151 329.807 647.443 329.891 647.811 329.891C648.211 329.891 648.519 329.815 648.735 329.663C648.951 329.503 649.059 329.291 649.059 329.027C649.059 328.835 648.999 328.675 648.879 328.547C648.767 328.419 648.559 328.315 648.255 328.235L647.223 327.995C646.703 327.867 646.315 327.671 646.059 327.407C645.811 327.143 645.687 326.795 645.687 326.363C645.687 326.003 645.779 325.691 645.963 325.427C646.155 325.163 646.415 324.959 646.743 324.815C647.079 324.671 647.463 324.599 647.895 324.599C648.327 324.599 648.699 324.675 649.011 324.827C649.331 324.979 649.579 325.191 649.755 325.463C649.939 325.735 650.035 326.059 650.043 326.435H648.963C648.955 326.131 648.855 325.895 648.663 325.727C648.471 325.559 648.203 325.475 647.859 325.475C647.507 325.475 647.235 325.551 647.043 325.703C646.851 325.855 646.755 326.063 646.755 326.327C646.755 326.719 647.043 326.987 647.619 327.131L648.651 327.383C649.147 327.495 649.519 327.679 649.767 327.935C650.015 328.183 650.139 328.523 650.139 328.955C650.139 329.323 650.039 329.647 649.839 329.927C649.639 330.199 649.363 330.411 649.011 330.563C648.667 330.707 648.259 330.779 647.787 330.779C647.099 330.779 646.551 330.611 646.143 330.275C645.735 329.939 645.531 329.491 645.531 328.931Z" fill="#9AA5B6"/>
<path d="M590.811 307.52V292.768H592.043V307.52H590.811ZM587.275 297.568C587.275 296.885 587.451 296.283 587.803 295.76C588.155 295.237 588.64 294.832 589.259 294.544C589.888 294.245 590.613 294.096 591.435 294.096C592.224 294.096 592.907 294.235 593.483 294.512C594.069 294.789 594.523 295.184 594.843 295.696C595.173 296.208 595.349 296.816 595.371 297.52H593.387C593.365 296.987 593.179 296.576 592.827 296.288C592.485 296 592.011 295.856 591.403 295.856C590.752 295.856 590.235 296.005 589.851 296.304C589.467 296.592 589.275 296.992 589.275 297.504C589.275 297.92 589.392 298.256 589.627 298.512C589.861 298.768 590.235 298.955 590.747 299.072L592.587 299.488C593.611 299.712 594.363 300.08 594.843 300.592C595.323 301.093 595.563 301.771 595.563 302.624C595.563 303.339 595.387 303.968 595.035 304.512C594.683 305.056 594.181 305.477 593.531 305.776C592.891 306.064 592.139 306.208 591.275 306.208C590.453 306.208 589.733 306.069 589.115 305.792C588.496 305.504 588.011 305.104 587.659 304.592C587.317 304.08 587.136 303.477 587.115 302.784H589.163C589.173 303.307 589.365 303.712 589.739 304C590.112 304.288 590.629 304.432 591.291 304.432C591.995 304.432 592.549 304.288 592.955 304C593.371 303.701 593.579 303.307 593.579 302.816C593.579 302.005 593.104 301.493 592.155 301.28L590.299 300.88C589.296 300.667 588.539 300.283 588.027 299.728C587.525 299.163 587.275 298.443 587.275 297.568ZM604.44 294.304V306H602.504V294.304H604.44ZM596.568 301.984L601.864 294.304H604.024L598.648 302.112L596.568 301.984ZM605.864 303.776H596.568V301.984H605.864V303.776ZM607.151 300.176C607.151 298.96 607.354 297.899 607.759 296.992C608.175 296.085 608.751 295.376 609.487 294.864C610.234 294.341 611.103 294.08 612.095 294.08C613.098 294.08 613.967 294.341 614.703 294.864C615.45 295.376 616.026 296.085 616.431 296.992C616.847 297.899 617.055 298.96 617.055 300.176C617.055 301.381 616.858 302.437 616.463 303.344C616.069 304.251 615.503 304.955 614.767 305.456C614.031 305.957 613.141 306.208 612.095 306.208C611.071 306.208 610.186 305.957 609.439 305.456C608.703 304.955 608.138 304.251 607.743 303.344C607.349 302.437 607.151 301.381 607.151 300.176ZM609.167 300.176C609.167 301.072 609.285 301.84 609.519 302.48C609.754 303.109 610.09 303.589 610.527 303.92C610.965 304.24 611.487 304.4 612.095 304.4C612.725 304.4 613.253 304.24 613.679 303.92C614.117 303.589 614.453 303.109 614.687 302.48C614.922 301.84 615.039 301.072 615.039 300.176C615.039 299.248 614.922 298.469 614.687 297.84C614.453 297.2 614.117 296.715 613.679 296.384C613.253 296.053 612.725 295.888 612.095 295.888C611.487 295.888 610.965 296.053 610.527 296.384C610.09 296.715 609.754 297.2 609.519 297.84C609.285 298.469 609.167 299.248 609.167 300.176ZM618.433 300.176C618.433 298.96 618.635 297.899 619.041 296.992C619.457 296.085 620.033 295.376 620.769 294.864C621.515 294.341 622.385 294.08 623.377 294.08C624.379 294.08 625.249 294.341 625.985 294.864C626.731 295.376 627.307 296.085 627.713 296.992C628.129 297.899 628.337 298.96 628.337 300.176C628.337 301.381 628.139 302.437 627.745 303.344C627.35 304.251 626.785 304.955 626.049 305.456C625.313 305.957 624.422 306.208 623.377 306.208C622.353 306.208 621.467 305.957 620.721 305.456C619.985 304.955 619.419 304.251 619.025 303.344C618.63 302.437 618.433 301.381 618.433 300.176ZM620.449 300.176C620.449 301.072 620.566 301.84 620.801 302.48C621.035 303.109 621.371 303.589 621.809 303.92C622.246 304.24 622.769 304.4 623.377 304.4C624.006 304.4 624.534 304.24 624.961 303.92C625.398 303.589 625.734 303.109 625.969 302.48C626.203 301.84 626.321 301.072 626.321 300.176C626.321 299.248 626.203 298.469 625.969 297.84C625.734 297.2 625.398 296.715 624.961 296.384C624.534 296.053 624.006 295.888 623.377 295.888C622.769 295.888 622.246 296.053 621.809 296.384C621.371 296.715 621.035 297.2 620.801 297.84C620.566 298.469 620.449 299.248 620.449 300.176ZM639.522 294.304L631.89 304.128V301.072L637.106 294.304H639.522ZM632.37 294.304V306H630.322V294.304H632.37ZM634.226 300.88L635.538 299.12L639.57 306H637.202L634.226 300.88Z" fill="#021F49"/>
</g>
<g filter="url(#filter5_d_0_1)">
<g clip-path="url(#clip1_0_1)">
<mask id="mask0_0_1" style="mask-type:alpha" maskUnits="userSpaceOnUse" x="854" y="627" width="154" height="116">
<rect x="854" y="627" width="153.456" height="115.092" rx="30" fill="white"/>
</mask>
<g mask="url(#mask0_0_1)">
<rect x="854" y="627" width="153.456" height="115.092" rx="30" fill="white"/>
<path d="M873.182 742.092L873.182 690.94" stroke="#CCE0FF" stroke-opacity="0.7" stroke-linecap="round" stroke-dasharray="4 8"/>
<path d="M903.182 742.092L903.182 690.94" stroke="#CCE0FF" stroke-opacity="0.7" stroke-linecap="round" stroke-dasharray="4 8"/>
<path d="M933.182 742.092L933.182 690.94" stroke="#CCE0FF" stroke-opacity="0.7" stroke-linecap="round" stroke-dasharray="4 8"/>
<path d="M963.182 742.092L963.182 690.94" stroke="#CCE0FF" stroke-opacity="0.7" stroke-linecap="round" stroke-dasharray="4 8"/>
<path d="M993.182 742.092L993.182 690.94" stroke="#CCE0FF" stroke-opacity="0.7" stroke-linecap="round" stroke-dasharray="4 8"/>
<path d="M863.898 709.102L843.13 729.87V745.531H1028.56V706.065L1014.05 720.569C1010.99 723.63 1006.03 723.63 1002.97 720.569L991.909 709.511C989.66 707.262 986.014 707.262 983.766 709.511C981.517 711.76 977.871 711.76 975.622 709.511L967.069 700.958C964.008 697.897 959.046 697.897 955.985 700.958L928.23 728.713C925.169 731.774 920.207 731.774 917.146 728.713L907.558 719.125C904.497 716.064 899.534 716.064 896.473 719.125L896.282 719.316C893.221 722.377 888.258 722.377 885.197 719.316L874.983 709.102C871.922 706.041 866.959 706.041 863.898 709.102Z" fill="url(#paint0_linear_0_1)"/>
<path d="M843.13 729.87L863.898 709.102C866.959 706.041 871.922 706.041 874.983 709.102L885.197 719.316C888.258 722.377 893.221 722.377 896.282 719.316L896.473 719.125C899.534 716.064 904.497 716.064 907.558 719.125L917.146 728.713C920.207 731.774 925.169 731.774 928.23 728.713L955.985 700.958C959.046 697.897 964.008 697.897 967.069 700.958L975.622 709.511C977.871 711.76 981.517 711.76 983.766 709.511V709.511C986.014 707.262 989.66 707.262 991.909 709.511L1002.97 720.569C1006.03 723.63 1010.99 723.63 1014.05 720.569L1028.56 706.065" stroke="#0066FF" stroke-width="3"/>
<g filter="url(#filter6_d_0_1)">
<circle cx="953.746" cy="703.089" r="5.11519" fill="white"/>
</g>
<circle cx="953.746" cy="703.089" r="1.9182" fill="#0066FF"/>
<path d="M883.175 666.253L866.951 666.285V663.213L874.599 656.749C875.388 656.087 876.049 655.479 876.583 654.925C877.137 654.37 877.575 653.847 877.895 653.357C878.215 652.866 878.449 652.375 878.599 651.885C878.748 651.394 878.823 650.861 878.823 650.285C878.823 648.962 878.481 647.938 877.799 647.213C877.116 646.487 876.156 646.125 874.919 646.125C873.639 646.125 872.625 646.551 871.879 647.405C871.132 648.258 870.748 649.431 870.727 650.925H866.663C866.684 649.218 867.036 647.735 867.719 646.477C868.401 645.197 869.361 644.215 870.599 643.533C871.836 642.829 873.276 642.477 874.919 642.477C876.583 642.477 878.012 642.786 879.207 643.405C880.423 644.002 881.361 644.866 882.023 645.997C882.684 647.127 883.015 648.482 883.015 650.061C883.015 650.871 882.897 651.65 882.663 652.397C882.449 653.122 882.119 653.837 881.671 654.541C881.223 655.223 880.668 655.917 880.007 656.621C879.345 657.325 878.567 658.061 877.671 658.829L871.975 663.693L870.503 662.445H883.175V666.253ZM899.459 659.405L894.403 666.285H889.731L896.323 657.485L897.347 657.741C896.877 658.146 896.291 658.477 895.587 658.733C894.904 658.967 894.232 659.085 893.571 659.085C891.971 659.085 890.563 658.743 889.347 658.061C888.131 657.357 887.181 656.397 886.499 655.181C885.816 653.943 885.475 652.535 885.475 650.957C885.475 649.293 885.848 647.821 886.595 646.541C887.363 645.261 888.397 644.269 889.699 643.565C891.021 642.839 892.515 642.477 894.179 642.477C895.864 642.477 897.368 642.861 898.691 643.629C900.035 644.375 901.091 645.389 901.859 646.669C902.627 647.949 903.011 649.389 903.011 650.989C903.011 651.927 902.893 652.813 902.659 653.645C902.424 654.477 902.051 655.351 901.539 656.269C901.027 657.165 900.333 658.21 899.459 659.405ZM898.819 650.957C898.819 649.997 898.627 649.154 898.243 648.429C897.859 647.703 897.315 647.138 896.611 646.733C895.907 646.327 895.096 646.125 894.179 646.125C893.283 646.125 892.483 646.327 891.779 646.733C891.096 647.138 890.563 647.703 890.179 648.429C889.795 649.154 889.603 649.997 889.603 650.957C889.603 651.895 889.795 652.727 890.179 653.453C890.563 654.157 891.096 654.711 891.779 655.117C892.483 655.522 893.283 655.725 894.179 655.725C895.117 655.725 895.928 655.522 896.611 655.117C897.315 654.711 897.859 654.157 898.243 653.453C898.627 652.727 898.819 651.895 898.819 650.957ZM920.336 646.157L911.888 653.933L909.2 652.045L917.392 644.525L916.688 646.509H905.488V642.893H920.336V646.157ZM912.048 654.701H909.2V652.045C909.605 651.725 910.139 651.511 910.8 651.405C911.461 651.277 912.08 651.213 912.656 651.213C913.765 651.213 914.821 651.383 915.824 651.725C916.827 652.066 917.712 652.567 918.48 653.229C919.269 653.869 919.888 654.669 920.336 655.629C920.784 656.567 921.008 657.645 921.008 658.861C921.008 660.461 920.635 661.847 919.888 663.021C919.141 664.194 918.117 665.101 916.816 665.741C915.536 666.381 914.107 666.701 912.528 666.701C910.992 666.701 909.605 666.402 908.368 665.805C907.152 665.186 906.181 664.29 905.456 663.117C904.752 661.943 904.4 660.514 904.4 658.829H908.432C908.432 660.173 908.805 661.218 909.552 661.965C910.32 662.69 911.333 663.053 912.592 663.053C913.872 663.053 914.896 662.669 915.664 661.901C916.453 661.111 916.848 660.077 916.848 658.797C916.848 657.623 916.453 656.653 915.664 655.885C914.875 655.095 913.669 654.701 912.048 654.701ZM942.971 642.893L927.707 662.541V656.429L938.139 642.893H942.971ZM928.667 642.893V666.285H924.571V642.893H928.667ZM932.379 656.045L935.003 652.525L943.067 666.285H938.331L932.379 656.045Z" fill="#021F49"/>
<g clip-path="url(#clip2_0_1)">
<path d="M880.176 680.425L875.256 685.315C874.591 685.976 874.258 686.306 873.846 686.306C873.433 686.306 873.101 685.975 872.436 685.314L872.276 685.156C871.611 684.494 871.278 684.163 870.865 684.163C870.453 684.163 870.12 684.494 869.455 685.157L866.843 687.758M880.176 680.425V684.122M880.176 680.425H876.454" stroke="#18C165" stroke-width="2" stroke-linecap="round" stroke-linejoin="round"/>
</g>
<path d="M891.749 679.986V688.758H890.297V679.986H891.749ZM885.845 685.746L889.817 679.986H891.437L887.405 685.842L885.845 685.746ZM892.817 687.09H885.845V685.746H892.817V687.09ZM895.021 681.366H893.101V679.986H896.485V688.758H895.021V681.366ZM902.466 682.122C902.466 682.57 902.366 682.97 902.166 683.322C901.974 683.666 901.706 683.938 901.362 684.138C901.018 684.33 900.622 684.426 900.174 684.426C899.734 684.426 899.338 684.33 898.986 684.138C898.642 683.938 898.37 683.666 898.17 683.322C897.978 682.97 897.882 682.57 897.882 682.122C897.882 681.674 897.978 681.278 898.17 680.934C898.37 680.582 898.642 680.31 898.986 680.118C899.338 679.918 899.734 679.818 900.174 679.818C900.622 679.818 901.018 679.918 901.362 680.118C901.706 680.31 901.974 680.582 902.166 680.934C902.366 681.278 902.466 681.674 902.466 682.122ZM901.302 682.122C901.302 681.778 901.198 681.498 900.99 681.282C900.782 681.058 900.51 680.946 900.174 680.946C899.838 680.946 899.566 681.058 899.358 681.282C899.158 681.498 899.058 681.778 899.058 682.122C899.058 682.466 899.158 682.75 899.358 682.974C899.566 683.198 899.838 683.31 900.174 683.31C900.51 683.31 900.782 683.198 900.99 682.974C901.198 682.75 901.302 682.466 901.302 682.122ZM907.278 679.998L900.618 688.758H899.154L905.814 679.998H907.278ZM908.562 686.61C908.562 687.058 908.462 687.458 908.262 687.81C908.07 688.154 907.802 688.426 907.458 688.626C907.122 688.818 906.73 688.914 906.282 688.914C905.834 688.914 905.438 688.818 905.094 688.626C904.75 688.426 904.478 688.154 904.278 687.81C904.086 687.458 903.99 687.058 903.99 686.61C903.99 686.162 904.086 685.766 904.278 685.422C904.478 685.07 904.75 684.798 905.094 684.606C905.438 684.406 905.834 684.306 906.282 684.306C906.73 684.306 907.122 684.406 907.458 684.606C907.802 684.798 908.07 685.07 908.262 685.422C908.462 685.766 908.562 686.162 908.562 686.61ZM907.398 686.61C907.398 686.258 907.294 685.974 907.086 685.758C906.886 685.542 906.618 685.434 906.282 685.434C905.946 685.434 905.674 685.542 905.466 685.758C905.258 685.974 905.154 686.258 905.154 686.61C905.154 686.954 905.258 687.238 905.466 687.462C905.674 687.678 905.946 687.786 906.282 687.786C906.61 687.786 906.878 687.678 907.086 687.462C907.294 687.238 907.398 686.954 907.398 686.61Z" fill="#18C165"/>
<path d="M920.929 688.758L917.629 680.082H918.889L921.001 685.626C921.097 685.866 921.189 686.118 921.277 686.382C921.365 686.638 921.453 686.93 921.541 687.258C921.645 686.914 921.745 686.602 921.841 686.322C921.937 686.042 922.021 685.806 922.093 685.614L924.193 680.082H925.417L922.153 688.758H920.929ZM926.353 688.758V682.89H927.481V688.758H926.353ZM926.905 681.498C926.705 681.498 926.529 681.426 926.377 681.282C926.233 681.13 926.161 680.954 926.161 680.754C926.161 680.546 926.233 680.37 926.377 680.226C926.529 680.082 926.705 680.01 926.905 680.01C927.113 680.01 927.289 680.082 927.433 680.226C927.577 680.37 927.649 680.546 927.649 680.754C927.649 680.954 927.577 681.13 927.433 681.282C927.289 681.426 927.113 681.498 926.905 681.498ZM928.638 687.054H929.718C929.718 687.35 929.826 687.586 930.042 687.762C930.258 687.93 930.55 688.014 930.918 688.014C931.318 688.014 931.626 687.938 931.842 687.786C932.058 687.626 932.166 687.414 932.166 687.15C932.166 686.958 932.106 686.798 931.986 686.67C931.874 686.542 931.666 686.438 931.362 686.358L930.33 686.118C929.81 685.99 929.422 685.794 929.166 685.53C928.918 685.266 928.794 684.918 928.794 684.486C928.794 684.126 928.886 683.814 929.07 683.55C929.262 683.286 929.522 683.082 929.85 682.938C930.186 682.794 930.57 682.722 931.002 682.722C931.434 682.722 931.806 682.798 932.118 682.95C932.438 683.102 932.686 683.314 932.862 683.586C933.046 683.858 933.142 684.182 933.15 684.558H932.07C932.062 684.254 931.962 684.018 931.77 683.85C931.578 683.682 931.31 683.598 930.966 683.598C930.614 683.598 930.342 683.674 930.15 683.826C929.958 683.978 929.862 684.186 929.862 684.45C929.862 684.842 930.15 685.11 930.726 685.254L931.758 685.506C932.254 685.618 932.626 685.802 932.874 686.058C933.122 686.306 933.246 686.646 933.246 687.078C933.246 687.446 933.146 687.77 932.946 688.05C932.746 688.322 932.47 688.534 932.118 688.686C931.774 688.83 931.366 688.902 930.894 688.902C930.206 688.902 929.658 688.734 929.25 688.398C928.842 688.062 928.638 687.614 928.638 687.054ZM934.497 688.758V682.89H935.625V688.758H934.497ZM935.049 681.498C934.849 681.498 934.673 681.426 934.521 681.282C934.377 681.13 934.305 680.954 934.305 680.754C934.305 680.546 934.377 680.37 934.521 680.226C934.673 680.082 934.849 680.01 935.049 680.01C935.257 680.01 935.433 680.082 935.577 680.226C935.721 680.37 935.793 680.546 935.793 680.754C935.793 680.954 935.721 681.13 935.577 681.282C935.433 681.426 935.257 681.498 935.049 681.498ZM936.639 682.89H940.071V683.838H936.639V682.89ZM938.919 688.758H937.791V681.054H938.919V688.758ZM940.64 685.818C940.64 685.218 940.772 684.686 941.036 684.222C941.3 683.758 941.66 683.394 942.116 683.13C942.58 682.866 943.108 682.734 943.7 682.734C944.292 682.734 944.816 682.866 945.272 683.13C945.728 683.394 946.088 683.758 946.352 684.222C946.616 684.686 946.748 685.218 946.748 685.818C946.748 686.418 946.616 686.95 946.352 687.414C946.088 687.878 945.728 688.242 945.272 688.506C944.816 688.77 944.292 688.902 943.7 688.902C943.108 688.902 942.58 688.77 942.116 688.506C941.66 688.242 941.3 687.878 941.036 687.414C940.772 686.95 940.64 686.418 940.64 685.818ZM941.78 685.818C941.78 686.226 941.86 686.586 942.02 686.898C942.188 687.21 942.416 687.454 942.704 687.63C942.992 687.806 943.324 687.894 943.7 687.894C944.076 687.894 944.408 687.806 944.696 687.63C944.984 687.454 945.208 687.21 945.368 686.898C945.536 686.586 945.62 686.226 945.62 685.818C945.62 685.402 945.536 685.042 945.368 684.738C945.208 684.426 944.984 684.182 944.696 684.006C944.408 683.83 944.076 683.742 943.7 683.742C943.324 683.742 942.992 683.83 942.704 684.006C942.416 684.182 942.188 684.426 942.02 684.738C941.86 685.042 941.78 685.402 941.78 685.818ZM951.357 682.842V683.874H950.853C950.317 683.874 949.893 684.03 949.581 684.342C949.277 684.646 949.125 685.082 949.125 685.65V688.758H947.997V682.902H949.053L949.149 684.078H949.041C949.121 683.694 949.313 683.382 949.617 683.142C949.921 682.894 950.301 682.77 950.757 682.77C950.861 682.77 950.957 682.778 951.045 682.794C951.141 682.802 951.245 682.818 951.357 682.842ZM951.935 687.054H953.015C953.015 687.35 953.123 687.586 953.339 687.762C953.555 687.93 953.847 688.014 954.215 688.014C954.615 688.014 954.923 687.938 955.139 687.786C955.355 687.626 955.463 687.414 955.463 687.15C955.463 686.958 955.403 686.798 955.283 686.67C955.171 686.542 954.963 686.438 954.659 686.358L953.627 686.118C953.107 685.99 952.719 685.794 952.463 685.53C952.215 685.266 952.091 684.918 952.091 684.486C952.091 684.126 952.183 683.814 952.367 683.55C952.559 683.286 952.819 683.082 953.147 682.938C953.483 682.794 953.867 682.722 954.299 682.722C954.731 682.722 955.103 682.798 955.415 682.95C955.735 683.102 955.983 683.314 956.159 683.586C956.343 683.858 956.439 684.182 956.447 684.558H955.367C955.359 684.254 955.259 684.018 955.067 683.85C954.875 683.682 954.607 683.598 954.263 683.598C953.911 683.598 953.639 683.674 953.447 683.826C953.255 683.978 953.159 684.186 953.159 684.45C953.159 684.842 953.447 685.11 954.023 685.254L955.055 685.506C955.551 685.618 955.923 685.802 956.171 686.058C956.419 686.306 956.543 686.646 956.543 687.078C956.543 687.446 956.443 687.77 956.243 688.05C956.043 688.322 955.767 688.534 955.415 688.686C955.071 688.83 954.663 688.902 954.191 688.902C953.503 688.902 952.955 688.734 952.547 688.398C952.139 688.062 951.935 687.614 951.935 687.054Z" fill="#9AA5B6"/>
</g>
</g>
</g>
<circle cx="529" cy="689" r="4" fill="#99C2FF"/>
<circle cx="549" cy="689" r="4" fill="#99C2FF"/>
<circle cx="569" cy="689" r="4" fill="#99C2FF"/>
<circle cx="589" cy="689" r="4" fill="#99C2FF"/>
<circle cx="609" cy="689" r="4" fill="#99C2FF"/>
<circle cx="629" cy="689" r="4" fill="#99C2FF"/>
<circle cx="649" cy="689" r="4" fill="#99C2FF"/>
<circle cx="669" cy="689" r="4" fill="#99C2FF"/>
<circle cx="529" cy="709" r="4" fill="#99C2FF"/>
<circle cx="549" cy="709" r="4" fill="#99C2FF"/>
<circle cx="569" cy="709" r="4" fill="#99C2FF"/>
<circle cx="589" cy="709" r="4" fill="#99C2FF"/>
<circle cx="609" cy="709" r="4" fill="#99C2FF"/>
<circle cx="629" cy="709" r="4" fill="#99C2FF"/>
<circle cx="649" cy="709" r="4" fill="#99C2FF"/>
<circle cx="669" cy="709" r="4" fill="#99C2FF"/>
<circle cx="529" cy="729" r="4" fill="#99C2FF"/>
<circle cx="549" cy="729" r="4" fill="#99C2FF"/>
<circle cx="569" cy="729" r="4" fill="#99C2FF"/>
<circle cx="589" cy="729" r="4" fill="#99C2FF"/>
<circle cx="609" cy="729" r="4" fill="#99C2FF"/>
<circle cx="629" cy="729" r="4" fill="#99C2FF"/>
<circle cx="649" cy="729" r="4" fill="#99C2FF"/>
<circle cx="669" cy="729" r="4" fill="#99C2FF"/>
<circle cx="529" cy="749" r="4" fill="#99C2FF"/>
<circle cx="549" cy="749" r="4" fill="#99C2FF"/>
<circle cx="569" cy="749" r="4" fill="#99C2FF"/>
<circle cx="589" cy="749" r="4" fill="#99C2FF"/>
<circle cx="609" cy="749" r="4" fill="#99C2FF"/>
<circle cx="629" cy="749" r="4" fill="#99C2FF"/>
<circle cx="649" cy="749" r="4" fill="#99C2FF"/>
<circle cx="669" cy="749" r="4" fill="#99C2FF"/>
<g filter="url(#filter7_d_0_1)">
<path fill-rule="evenodd" clip-rule="evenodd" d="M864.176 366C864.176 359.373 869.548 354 876.176 354H900.627C907.254 354 912.627 359.373 912.627 366V379.146C912.627 385.773 917.999 391.146 924.627 391.146H953.923C960.55 391.146 965.923 396.519 965.923 403.146V442.94C965.923 449.567 971.296 454.94 977.923 454.94H1025.79C1032.42 454.94 1037.79 460.312 1037.79 466.94V515.616C1037.79 522.244 1032.42 527.616 1025.79 527.616H977.116C970.488 527.616 965.116 522.244 965.116 515.616V467.747C965.116 461.12 959.743 455.747 953.116 455.747H914.129C907.502 455.747 902.129 461.12 902.129 467.747V507.541C902.129 514.169 896.757 519.541 890.129 519.541H685.601C678.974 519.541 673.601 524.914 673.601 531.541V560.838C673.601 567.465 678.974 572.838 685.601 572.838H724.588C731.215 572.838 736.588 578.21 736.588 584.838V633.514C736.588 640.142 731.215 645.514 724.588 645.514H675.911C669.284 645.514 663.911 640.142 663.911 633.514V595.335C663.911 588.708 658.539 583.335 651.911 583.335H621C614.373 583.335 609 577.963 609 571.335V530.734C609 524.107 614.373 518.734 621 518.734H660.794C667.421 518.734 672.794 513.361 672.794 506.734V466.94C672.794 460.312 678.167 454.94 684.794 454.94H889.322C895.949 454.94 901.322 449.567 901.322 442.94V414.451C901.322 407.824 895.949 402.451 889.322 402.451H876.176C869.548 402.451 864.176 397.079 864.176 390.451V366Z" fill="white"/>
</g>
<path d="M721.519 487.782C721.519 490.326 720.711 492.804 719.211 494.858C717.711 496.912 715.597 498.437 713.174 499.212C710.752 499.987 708.145 499.972 705.732 499.169C703.318 498.366 701.222 496.817 699.746 494.746C698.27 492.674 697.49 490.187 697.52 487.644C697.549 485.1 698.386 482.632 699.909 480.595C701.433 478.558 703.564 477.058 705.995 476.311C708.427 475.564 711.033 475.609 713.437 476.44L711.674 481.544C710.351 481.087 708.918 481.062 707.581 481.473C706.244 481.884 705.071 482.709 704.233 483.829C703.396 484.95 702.935 486.307 702.919 487.706C702.903 489.105 703.332 490.473 704.144 491.612C704.956 492.752 706.108 493.603 707.436 494.045C708.763 494.486 710.197 494.495 711.529 494.069C712.862 493.642 714.024 492.804 714.849 491.674C715.674 490.544 716.119 489.181 716.119 487.782H721.519Z" fill="#CCE0FF"/>
<mask id="path-128-outside-1_0_1" maskUnits="userSpaceOnUse" x="695.519" y="483.782" width="28" height="18" fill="black">
<rect fill="white" x="695.519" y="483.782" width="28" height="18"/>
<path d="M721.519 487.782C721.519 489.424 721.182 491.049 720.529 492.555C719.876 494.062 718.92 495.418 717.722 496.541C716.523 497.663 715.107 498.528 713.561 499.081C712.015 499.634 710.372 499.864 708.733 499.757C707.095 499.649 705.496 499.206 704.035 498.456C702.575 497.706 701.284 496.664 700.242 495.394C699.2 494.125 698.43 492.655 697.98 491.076C697.529 489.497 697.407 487.842 697.622 486.215L702.975 486.92C702.857 487.815 702.924 488.725 703.172 489.594C703.42 490.462 703.844 491.271 704.417 491.969C704.989 492.667 705.699 493.24 706.503 493.653C707.306 494.066 708.186 494.309 709.087 494.368C709.988 494.427 710.892 494.301 711.742 493.997C712.592 493.692 713.371 493.217 714.03 492.6C714.69 491.982 715.215 491.236 715.574 490.408C715.933 489.579 716.119 488.685 716.119 487.782H721.519Z"/>
</mask>
<path d="M721.519 487.782C721.519 489.424 721.182 491.049 720.529 492.555C719.876 494.062 718.92 495.418 717.722 496.541C716.523 497.663 715.107 498.528 713.561 499.081C712.015 499.634 710.372 499.864 708.733 499.757C707.095 499.649 705.496 499.206 704.035 498.456C702.575 497.706 701.284 496.664 700.242 495.394C699.2 494.125 698.43 492.655 697.98 491.076C697.529 489.497 697.407 487.842 697.622 486.215L702.975 486.92C702.857 487.815 702.924 488.725 703.172 489.594C703.42 490.462 703.844 491.271 704.417 491.969C704.989 492.667 705.699 493.24 706.503 493.653C707.306 494.066 708.186 494.309 709.087 494.368C709.988 494.427 710.892 494.301 711.742 493.997C712.592 493.692 713.371 493.217 714.03 492.6C714.69 491.982 715.215 491.236 715.574 490.408C715.933 489.579 716.119 488.685 716.119 487.782H721.519Z" fill="#0066FF"/>
<path d="M721.519 487.782C721.519 489.424 721.182 491.049 720.529 492.555C719.876 494.062 718.92 495.418 717.722 496.541C716.523 497.663 715.107 498.528 713.561 499.081C712.015 499.634 710.372 499.864 708.733 499.757C707.095 499.649 705.496 499.206 704.035 498.456C702.575 497.706 701.284 496.664 700.242 495.394C699.2 494.125 698.43 492.655 697.98 491.076C697.529 489.497 697.407 487.842 697.622 486.215L702.975 486.92C702.857 487.815 702.924 488.725 703.172 489.594C703.42 490.462 703.844 491.271 704.417 491.969C704.989 492.667 705.699 493.24 706.503 493.653C707.306 494.066 708.186 494.309 709.087 494.368C709.988 494.427 710.892 494.301 711.742 493.997C712.592 493.692 713.371 493.217 714.03 492.6C714.69 491.982 715.215 491.236 715.574 490.408C715.933 489.579 716.119 488.685 716.119 487.782H721.519Z" stroke="white" stroke-width="4" mask="url(#path-128-outside-1_0_1)"/>
<mask id="path-129-outside-2_0_1" maskUnits="userSpaceOnUse" x="703.519" y="485.782" width="20" height="16" fill="black">
<rect fill="white" x="703.519" y="485.782" width="20" height="16"/>
<path d="M721.519 487.782C721.519 489.639 721.088 491.47 720.261 493.131C719.433 494.793 718.232 496.24 716.75 497.359C715.269 498.477 713.548 499.237 711.724 499.578C709.899 499.919 708.02 499.832 706.235 499.324L707.713 494.13C708.695 494.41 709.728 494.457 710.731 494.27C711.735 494.082 712.681 493.664 713.496 493.049C714.311 492.434 714.972 491.638 715.427 490.724C715.882 489.81 716.119 488.803 716.119 487.782H721.519Z"/>
</mask>
<path d="M721.519 487.782C721.519 489.639 721.088 491.47 720.261 493.131C719.433 494.793 718.232 496.24 716.75 497.359C715.269 498.477 713.548 499.237 711.724 499.578C709.899 499.919 708.02 499.832 706.235 499.324L707.713 494.13C708.695 494.41 709.728 494.457 710.731 494.27C711.735 494.082 712.681 493.664 713.496 493.049C714.311 492.434 714.972 491.638 715.427 490.724C715.882 489.81 716.119 488.803 716.119 487.782H721.519Z" fill="#0066FF"/>
<path d="M721.519 487.782C721.519 489.639 721.088 491.47 720.261 493.131C719.433 494.793 718.232 496.24 716.75 497.359C715.269 498.477 713.548 499.237 711.724 499.578C709.899 499.919 708.02 499.832 706.235 499.324L707.713 494.13C708.695 494.41 709.728 494.457 710.731 494.27C711.735 494.082 712.681 493.664 713.496 493.049C714.311 492.434 714.972 491.638 715.427 490.724C715.882 489.81 716.119 488.803 716.119 487.782H721.519Z" stroke="white" stroke-width="4" mask="url(#path-129-outside-2_0_1)"/>
<path d="M729.281 481.624V494.782H726.977V481.624H729.281ZM732.197 489.184H728.579V487.24H732.071C732.707 487.24 733.193 487.084 733.529 486.772C733.865 486.448 734.033 485.992 734.033 485.404C734.033 484.84 733.859 484.408 733.511 484.108C733.163 483.808 732.659 483.658 731.999 483.658H728.507V481.624H732.197C733.505 481.624 734.531 481.942 735.275 482.578C736.019 483.214 736.391 484.084 736.391 485.188C736.391 485.98 736.199 486.646 735.815 487.186C735.431 487.714 734.861 488.098 734.105 488.338V488.086C734.921 488.278 735.539 488.638 735.959 489.166C736.379 489.694 736.589 490.378 736.589 491.218C736.589 491.962 736.421 492.604 736.085 493.144C735.749 493.672 735.257 494.08 734.609 494.368C733.973 494.644 733.205 494.782 732.305 494.782H728.507V492.748H732.197C732.857 492.748 733.361 492.592 733.709 492.28C734.057 491.968 734.231 491.518 734.231 490.93C734.231 490.378 734.051 489.952 733.691 489.652C733.343 489.34 732.845 489.184 732.197 489.184ZM744.407 485.89H746.603V494.782H744.569L744.407 493.594C744.143 494.014 743.747 494.356 743.219 494.62C742.691 494.884 742.127 495.016 741.527 495.016C740.507 495.016 739.709 494.692 739.133 494.044C738.557 493.396 738.269 492.532 738.269 491.452V485.89H740.465V490.678C740.465 491.518 740.627 492.124 740.951 492.496C741.275 492.868 741.743 493.054 742.355 493.054C743.051 493.054 743.567 492.85 743.903 492.442C744.239 492.022 744.407 491.392 744.407 490.552V485.89ZM751.068 494.782H748.872V485.89H750.906L751.086 487.042C751.362 486.598 751.752 486.25 752.256 485.998C752.772 485.746 753.33 485.62 753.93 485.62C755.046 485.62 755.886 485.95 756.45 486.61C757.026 487.27 757.314 488.17 757.314 489.31V494.782H755.118V489.832C755.118 489.088 754.95 488.536 754.614 488.176C754.278 487.804 753.822 487.618 753.246 487.618C752.562 487.618 752.028 487.834 751.644 488.266C751.26 488.698 751.068 489.274 751.068 489.994V494.782ZM763.125 495.016C762.261 495.016 761.517 494.824 760.893 494.44C760.281 494.044 759.801 493.498 759.453 492.802C759.117 492.106 758.949 491.296 758.949 490.372C758.949 489.448 759.117 488.632 759.453 487.924C759.801 487.204 760.299 486.64 760.947 486.232C761.595 485.824 762.363 485.62 763.251 485.62C763.875 485.62 764.445 485.746 764.961 485.998C765.477 486.238 765.873 486.58 766.149 487.024V481.39H768.327V494.782H766.311L766.167 493.396C765.903 493.9 765.495 494.296 764.943 494.584C764.403 494.872 763.797 495.016 763.125 495.016ZM763.611 493C764.127 493 764.571 492.892 764.943 492.676C765.315 492.448 765.603 492.13 765.807 491.722C766.023 491.302 766.131 490.828 766.131 490.3C766.131 489.76 766.023 489.292 765.807 488.896C765.603 488.488 765.315 488.17 764.943 487.942C764.571 487.702 764.127 487.582 763.611 487.582C763.107 487.582 762.669 487.702 762.297 487.942C761.925 488.17 761.637 488.488 761.433 488.896C761.241 489.304 761.145 489.772 761.145 490.3C761.145 490.828 761.241 491.296 761.433 491.704C761.637 492.112 761.925 492.43 762.297 492.658C762.669 492.886 763.107 493 763.611 493ZM772.83 494.782H770.652V481.39H772.83V494.782ZM779.111 495.016C778.235 495.016 777.455 494.818 776.771 494.422C776.099 494.014 775.571 493.462 775.187 492.766C774.803 492.058 774.611 491.248 774.611 490.336C774.611 489.412 774.797 488.596 775.169 487.888C775.541 487.18 776.063 486.628 776.735 486.232C777.407 485.824 778.175 485.62 779.039 485.62C779.939 485.62 780.713 485.812 781.361 486.196C782.009 486.568 782.507 487.09 782.855 487.762C783.215 488.434 783.395 489.238 783.395 490.174V490.84L775.763 490.858L775.799 489.454H781.217C781.217 488.842 781.019 488.35 780.623 487.978C780.239 487.606 779.717 487.42 779.057 487.42C778.541 487.42 778.103 487.528 777.743 487.744C777.395 487.96 777.131 488.284 776.951 488.716C776.771 489.148 776.681 489.676 776.681 490.3C776.681 491.26 776.885 491.986 777.293 492.478C777.713 492.97 778.331 493.216 779.147 493.216C779.747 493.216 780.239 493.102 780.623 492.874C781.019 492.646 781.277 492.322 781.397 491.902H783.431C783.239 492.874 782.759 493.636 781.991 494.188C781.235 494.74 780.275 495.016 779.111 495.016ZM788.807 495.016C787.943 495.016 787.199 494.824 786.575 494.44C785.963 494.044 785.483 493.498 785.135 492.802C784.799 492.106 784.631 491.296 784.631 490.372C784.631 489.448 784.799 488.632 785.135 487.924C785.483 487.204 785.981 486.64 786.629 486.232C787.277 485.824 788.045 485.62 788.933 485.62C789.557 485.62 790.127 485.746 790.643 485.998C791.159 486.238 791.555 486.58 791.831 487.024V481.39H794.009V494.782H791.993L791.849 493.396C791.585 493.9 791.177 494.296 790.625 494.584C790.085 494.872 789.479 495.016 788.807 495.016ZM789.293 493C789.809 493 790.253 492.892 790.625 492.676C790.997 492.448 791.285 492.13 791.489 491.722C791.705 491.302 791.813 490.828 791.813 490.3C791.813 489.76 791.705 489.292 791.489 488.896C791.285 488.488 790.997 488.17 790.625 487.942C790.253 487.702 789.809 487.582 789.293 487.582C788.789 487.582 788.351 487.702 787.979 487.942C787.607 488.17 787.319 488.488 787.115 488.896C786.923 489.304 786.827 489.772 786.827 490.3C786.827 490.828 786.923 491.296 787.115 491.704C787.319 492.112 787.607 492.43 787.979 492.658C788.351 492.886 788.789 493 789.293 493ZM795.865 485.296C795.865 484.528 796.063 483.85 796.459 483.262C796.855 482.674 797.401 482.218 798.097 481.894C798.805 481.558 799.621 481.39 800.545 481.39C801.433 481.39 802.201 481.546 802.849 481.858C803.509 482.17 804.019 482.614 804.379 483.19C804.751 483.766 804.949 484.45 804.973 485.242H802.669C802.645 484.678 802.441 484.24 802.057 483.928C801.673 483.604 801.157 483.442 800.509 483.442C799.801 483.442 799.231 483.604 798.799 483.928C798.379 484.24 798.169 484.672 798.169 485.224C798.169 485.692 798.295 486.064 798.547 486.34C798.811 486.604 799.219 486.802 799.771 486.934L801.841 487.402C802.969 487.642 803.809 488.056 804.361 488.644C804.913 489.22 805.189 490 805.189 490.984C805.189 491.788 804.991 492.496 804.595 493.108C804.199 493.72 803.635 494.194 802.903 494.53C802.183 494.854 801.337 495.016 800.365 495.016C799.441 495.016 798.631 494.86 797.935 494.548C797.239 494.224 796.693 493.774 796.297 493.198C795.913 492.622 795.709 491.944 795.685 491.164H797.989C798.001 491.716 798.217 492.154 798.637 492.478C799.069 492.79 799.651 492.946 800.383 492.946C801.151 492.946 801.757 492.79 802.201 492.478C802.657 492.154 802.885 491.728 802.885 491.2C802.885 490.744 802.765 490.384 802.525 490.12C802.285 489.844 801.895 489.652 801.355 489.544L799.267 489.076C798.151 488.836 797.305 488.404 796.729 487.78C796.153 487.144 795.865 486.316 795.865 485.296ZM815.446 494.782H807.274V481.624H815.446V483.748H808.768L809.578 483.01V487.132H814.834V489.166H809.578V493.396L808.768 492.658H815.446V494.782ZM829.914 488.194C829.914 489.526 829.644 490.708 829.104 491.74C828.564 492.76 827.814 493.558 826.854 494.134C825.894 494.71 824.784 494.998 823.524 494.998C822.276 494.998 821.172 494.71 820.212 494.134C819.252 493.558 818.502 492.76 817.962 491.74C817.434 490.72 817.17 489.544 817.17 488.212C817.17 486.868 817.44 485.686 817.98 484.666C818.52 483.634 819.264 482.83 820.212 482.254C821.172 481.678 822.282 481.39 823.542 481.39C824.802 481.39 825.906 481.678 826.854 482.254C827.814 482.83 828.564 483.628 829.104 484.648C829.644 485.668 829.914 486.85 829.914 488.194ZM827.502 488.194C827.502 487.258 827.34 486.448 827.016 485.764C826.692 485.08 826.236 484.552 825.648 484.18C825.06 483.796 824.358 483.604 823.542 483.604C822.738 483.604 822.036 483.796 821.436 484.18C820.848 484.552 820.392 485.08 820.068 485.764C819.744 486.448 819.582 487.258 819.582 488.194C819.582 489.13 819.744 489.946 820.068 490.642C820.392 491.326 820.848 491.854 821.436 492.226C822.036 492.598 822.738 492.784 823.542 492.784C824.358 492.784 825.06 492.598 825.648 492.226C826.236 491.842 826.692 491.308 827.016 490.624C827.34 489.928 827.502 489.118 827.502 488.194Z" fill="#021F49"/>
<path d="M719.649 613.483L727.698 604.735H710.849C710.526 604.747 710.267 605.004 710.251 605.328V607.169C708.705 604.53 705.532 602.716 701.86 602.716C697.52 602.716 693.878 605.246 692.797 608.68V604.735H689.857C689.157 604.745 688.543 605.056 688.098 605.527L682.393 611.802L676.686 605.527C676.243 605.056 675.63 604.745 674.929 604.735H671.986V617.52H675.422C675.752 617.504 676.001 617.238 676.014 616.908V610.791L682.392 617.857L688.769 610.791V616.908C688.781 617.238 689.048 617.504 689.377 617.52H692.797V612.902C693.878 616.336 697.52 618.866 701.86 618.866C707.05 618.866 711.258 615.251 711.258 610.791C711.258 610.092 711.144 609.418 710.949 608.772H718.307L710.251 617.52H727.104C727.426 617.508 727.689 617.249 727.705 616.925V613.483H719.649ZM701.892 614.802C699.365 614.802 697.315 613.006 697.315 610.791C697.315 608.575 699.365 606.78 701.892 606.78C704.421 606.78 706.472 608.576 706.472 610.791C706.472 613.006 704.422 614.802 701.892 614.802Z" fill="#4DBDEB"/>
<path d="M895.329 366.369C891.946 362.405 880.996 370.092 881.085 379.984C881.083 380.106 881.034 380.222 880.948 380.308C880.862 380.394 880.746 380.443 880.624 380.444C880.545 380.444 880.466 380.422 880.397 380.383C880.328 380.343 880.27 380.287 880.229 380.218C879.589 378.834 879.258 377.327 879.26 375.801C879.259 374.654 879.444 373.514 879.809 372.426C879.841 372.332 879.839 372.23 879.804 372.138C879.769 372.045 879.703 371.967 879.618 371.918C879.532 371.868 879.432 371.85 879.334 371.866C879.236 371.882 879.147 371.932 879.082 372.006C873.568 378.024 876.637 387.754 884.605 389.52C885.356 389.687 886.122 389.771 886.891 389.771C901.798 389.473 898.349 369.906 895.329 366.369Z" fill="#81B441"/>
<path d="M614.773 548.461H620.121V549.918L618.11 550.067C614.861 550.303 613.845 551.136 613.845 553.474V553.945C613.845 555.656 615.083 556.687 616.982 556.687C618.485 556.687 619.347 556.344 620.408 555.294H620.585V556.408H622.728V546.189H614.773V548.461ZM620.121 553.388C619.459 554.03 618.463 554.458 617.646 554.458C616.763 554.458 616.386 554.136 616.408 553.429C616.43 552.444 616.806 552.208 618.507 552.058L620.121 551.908V553.388Z" fill="#FF8800"/>
<path fill-rule="evenodd" clip-rule="evenodd" d="M626.079 546.061H630.074V548.165H632.254V556.406H629.711V548.382H626.079V556.406H623.535V542.959H626.079V546.061ZM663.261 550.225L661.722 550.073C660.869 549.986 660.656 549.77 660.656 549.075C660.656 548.295 660.955 548.099 662.149 548.099C663.215 548.099 663.516 548.273 663.666 549.01H666.059C665.995 546.538 665.247 545.907 662.277 545.907C659.029 545.907 658.217 546.537 658.217 549.074C658.217 551.395 658.815 552.024 661.23 552.262L662.491 552.392C663.623 552.5 663.901 552.718 663.901 553.412C663.901 554.258 663.559 554.474 662.17 554.474C660.952 554.474 660.631 554.279 660.567 553.477H658.15C658.214 556.036 658.983 556.687 662.061 556.687C665.479 556.687 666.334 555.993 666.334 553.173C666.337 551.071 665.718 550.463 663.261 550.225ZM650.17 550.42C650.17 547.08 649.038 545.909 645.79 545.909C642.584 545.909 641.324 547.424 641.324 551.201C641.324 555.322 642.435 556.686 646.025 556.686C648.611 556.686 649.7 555.883 650.063 553.627H647.606C647.328 554.324 647.03 554.476 645.986 554.476C644.404 554.476 643.999 554.02 643.913 552.09H650.003C650.105 551.539 650.161 550.98 650.17 550.42ZM643.931 550.051C643.952 548.598 644.529 548.056 645.897 548.056C647.2 548.056 647.734 548.598 647.778 550.051H643.931ZM651.65 546.516V556.406H654.194V548.273H657.251V546.06H654.194V545.779C654.214 545.171 654.364 544.998 654.856 544.998H657.633V542.959H654.641C652.612 542.959 651.65 543.588 651.65 546.516ZM636.661 556.406H634.118V546.061H640.443V548.49H636.661V556.406Z" fill="black"/>
<path fill-rule="evenodd" clip-rule="evenodd" d="M1013.57 484.01C1013.57 489.808 1008.87 494.508 1003.07 494.508C997.271 494.508 992.571 489.808 992.571 484.01C992.571 478.213 997.271 473.513 1003.07 473.513C1008.87 473.513 1013.57 478.213 1013.57 484.01Z" fill="#15C39A"/>
<path fill-rule="evenodd" clip-rule="evenodd" d="M1004.46 486.372C1004.52 486.732 1004.82 486.978 1005.14 486.978H1006.17L1006.77 486.885C1005.81 488.45 1004.16 489.17 1002.35 488.852C1000.88 488.593 999.61 487.478 999.076 485.92C997.864 482.384 1000.17 479.008 1003.18 479.008C1004.75 479.008 1006.12 480.034 1006.91 481.274C1007.12 481.611 1007.54 481.735 1007.84 481.501C1007.97 481.397 1008.07 481.238 1008.11 481.056C1008.15 480.875 1008.12 480.685 1008.04 480.524C1007.48 479.547 1006.69 478.757 1005.77 478.237C1004.85 477.716 1003.81 477.485 1002.78 477.566C999.913 477.782 997.591 480.408 997.426 483.619C997.235 487.357 999.884 490.408 1003.18 490.408C1004 490.411 1004.81 490.216 1005.56 489.835C1006.31 489.454 1006.98 488.896 1007.52 488.2L1007.39 488.983V489.69C1007.39 490.055 1007.61 490.393 1007.93 490.458C1008.03 490.478 1008.13 490.474 1008.22 490.447C1008.32 490.42 1008.4 490.369 1008.48 490.3C1008.56 490.23 1008.62 490.142 1008.66 490.043C1008.7 489.944 1008.72 489.836 1008.72 489.726V485.49H1005.11C1005.01 485.49 1004.92 485.514 1004.83 485.56C1004.74 485.607 1004.66 485.674 1004.6 485.759C1004.54 485.843 1004.49 485.942 1004.47 486.048C1004.44 486.154 1004.44 486.265 1004.46 486.372Z" fill="white"/>
<path fill-rule="evenodd" clip-rule="evenodd" d="M972.436 507.792C972.107 507.676 971.892 507.43 971.892 507.103C971.892 506.706 972.246 506.379 972.676 506.379C972.802 506.379 972.904 506.403 972.992 506.437C973.578 506.688 974.217 506.816 974.863 506.811C976.178 506.811 976.797 506.228 976.797 505.106V504.803C976.228 505.434 975.609 505.819 974.585 505.819C973.005 505.819 971.576 504.756 971.576 502.899V502.876C971.576 501.007 973.03 499.957 974.585 499.957C975.634 499.957 976.253 500.366 976.772 500.891V500.879C976.772 500.4 977.201 500.004 977.733 500.004C978.263 500.004 978.693 500.4 978.693 500.891V504.92C978.693 506.041 978.403 506.858 977.834 507.383C977.201 507.968 976.228 508.224 974.913 508.224C974.065 508.231 973.223 508.084 972.436 507.792ZM976.797 502.899V502.876C976.797 502.023 976.076 501.428 975.141 501.428C974.206 501.428 973.498 502.023 973.498 502.876V502.899C973.498 503.763 974.206 504.347 975.141 504.347C976.076 504.347 976.797 503.752 976.797 502.899ZM979.781 500.891C979.781 500.4 980.211 500.004 980.742 500.004C981.273 500.004 981.702 500.4 981.702 500.891V501.17C981.981 500.564 982.436 500.004 983.005 500.004C983.599 500.004 983.94 500.365 983.94 500.867C983.94 501.334 983.612 501.615 983.22 501.697C982.246 501.907 981.703 502.596 981.703 503.857V505.515C981.703 506.005 981.273 506.403 980.742 506.403C980.616 506.403 980.491 506.38 980.375 506.336C980.258 506.291 980.152 506.226 980.063 506.144C979.974 506.061 979.903 505.963 979.855 505.856C979.806 505.748 979.781 505.632 979.781 505.516V500.891ZM983.713 504.534V504.511C983.713 503.144 984.838 502.514 986.444 502.514C987.126 502.514 987.62 502.619 988.1 502.771V502.665C988.1 501.931 987.607 501.521 986.646 501.521C986.197 501.517 985.749 501.576 985.318 501.697C985.23 501.727 985.136 501.743 985.041 501.744C984.937 501.745 984.834 501.728 984.737 501.692C984.641 501.657 984.553 501.604 984.479 501.536C984.404 501.469 984.345 501.388 984.305 501.299C984.265 501.211 984.244 501.115 984.244 501.019C984.244 500.704 984.458 500.436 984.763 500.33C985.369 500.12 986.027 500.004 986.924 500.004C987.973 500.004 988.732 500.26 989.212 500.704C989.718 501.17 989.946 501.86 989.946 502.701V505.55C989.946 506.029 989.529 506.403 989.01 506.403C988.454 506.403 988.087 506.041 988.087 505.667V505.655C987.62 506.134 986.976 506.449 986.039 506.449C984.763 506.449 983.713 505.772 983.713 504.534ZM988.125 504.125V503.81C987.739 503.653 987.321 503.573 986.899 503.576C986.077 503.576 985.572 503.88 985.572 504.441V504.464C985.572 504.943 986.002 505.224 986.621 505.224C987.519 505.224 988.125 504.768 988.125 504.125ZM990.97 500.891C990.97 500.4 991.4 500.004 991.931 500.004C992.462 500.004 992.892 500.4 992.892 500.891V500.961C993.334 500.436 993.916 499.957 994.889 499.957C995.774 499.957 996.444 500.318 996.798 500.949C997.392 500.307 998.101 499.957 999.023 499.957C1000.45 499.957 1001.31 500.751 1001.31 502.257V505.515C1001.31 506.005 1000.88 506.403 1000.35 506.403C1000.23 506.403 1000.1 506.38 999.984 506.336C999.867 506.291 999.761 506.226 999.672 506.144C999.583 506.061 999.512 505.963 999.463 505.856C999.415 505.748 999.39 505.632 999.39 505.516V502.841C999.39 502 998.985 501.568 998.265 501.568C997.544 501.568 997.102 502 997.102 502.841V505.516C997.102 506.005 996.672 506.403 996.141 506.403C995.887 506.403 995.643 506.31 995.462 506.143C995.282 505.977 995.181 505.751 995.18 505.516V502.841C995.18 502 994.775 501.568 994.055 501.568C993.334 501.568 992.892 502 992.892 502.841V505.516C992.892 506.005 992.462 506.403 991.931 506.403C991.805 506.403 991.681 506.38 991.564 506.336C991.448 506.291 991.342 506.226 991.252 506.144C991.163 506.061 991.092 505.964 991.044 505.856C990.995 505.748 990.97 505.632 990.97 505.516V500.891ZM1002.35 500.891C1002.35 500.4 1002.78 500.004 1003.31 500.004C1003.84 500.004 1004.27 500.4 1004.27 500.891V500.961C1004.71 500.436 1005.29 499.957 1006.27 499.957C1007.15 499.957 1007.82 500.318 1008.18 500.949C1008.77 500.307 1009.48 499.957 1010.4 499.957C1011.83 499.957 1012.69 500.751 1012.69 502.257V505.515C1012.69 506.005 1012.26 506.403 1011.73 506.403C1011.47 506.403 1011.23 506.31 1011.05 506.143C1010.87 505.977 1010.77 505.751 1010.77 505.516V502.841C1010.77 502 1010.36 501.568 1009.64 501.568C1008.92 501.568 1008.48 502 1008.48 502.841V505.516C1008.48 506.005 1008.05 506.403 1007.52 506.403C1007.39 506.403 1007.27 506.38 1007.15 506.336C1007.04 506.291 1006.93 506.226 1006.84 506.144C1006.75 506.061 1006.68 505.963 1006.63 505.856C1006.58 505.748 1006.56 505.632 1006.56 505.516V502.841C1006.56 502 1006.15 501.568 1005.43 501.568C1004.71 501.568 1004.27 502 1004.27 502.841V505.516C1004.27 506.005 1003.84 506.403 1003.31 506.403C1003.18 506.403 1003.06 506.38 1002.94 506.336C1002.83 506.291 1002.72 506.226 1002.63 506.144C1002.54 506.061 1002.47 505.963 1002.42 505.856C1002.37 505.748 1002.35 505.632 1002.35 505.516V500.891ZM1013.32 504.534V504.511C1013.32 503.144 1014.45 502.514 1016.05 502.514C1016.62 502.509 1017.18 502.596 1017.71 502.771V502.665C1017.71 501.931 1017.22 501.521 1016.26 501.521C1015.73 501.521 1015.3 501.591 1014.93 501.697C1014.84 501.727 1014.75 501.743 1014.65 501.744C1014.55 501.746 1014.44 501.728 1014.35 501.693C1014.25 501.657 1014.16 501.604 1014.09 501.537C1014.01 501.469 1013.95 501.389 1013.91 501.3C1013.87 501.211 1013.85 501.115 1013.85 501.019C1013.85 500.704 1014.07 500.436 1014.37 500.33C1014.98 500.12 1015.64 500.004 1016.53 500.004C1017.58 500.004 1018.34 500.26 1018.82 500.704C1019.33 501.17 1019.56 501.86 1019.56 502.701V505.55C1019.56 505.663 1019.53 505.775 1019.48 505.879C1019.44 505.984 1019.37 506.078 1019.28 506.158C1019.19 506.237 1019.09 506.3 1018.98 506.342C1018.86 506.384 1018.74 506.404 1018.62 506.403C1018.06 506.403 1017.7 506.041 1017.7 505.667V505.655C1017.23 506.134 1016.58 506.449 1015.65 506.449C1014.37 506.449 1013.32 505.772 1013.32 504.534ZM1017.74 504.125V503.81C1017.35 503.653 1016.93 503.573 1016.51 503.576C1015.69 503.576 1015.18 503.88 1015.18 504.441V504.464C1015.18 504.943 1015.61 505.224 1016.23 505.224C1017.13 505.224 1017.74 504.768 1017.74 504.125ZM1020.58 500.891C1020.58 500.4 1021.01 500.004 1021.54 500.004C1022.07 500.004 1022.5 500.4 1022.5 500.891V501.17C1022.78 500.564 1023.23 500.004 1023.8 500.004C1024.4 500.004 1024.74 500.365 1024.74 500.867C1024.74 501.334 1024.41 501.615 1024.02 501.697C1023.05 501.907 1022.5 502.596 1022.5 503.857V505.515C1022.5 506.005 1022.07 506.403 1021.54 506.403C1021.29 506.403 1021.04 506.31 1020.86 506.143C1020.68 505.977 1020.58 505.751 1020.58 505.516V500.891ZM1025.32 498.625C1025.32 498.134 1025.75 497.738 1026.28 497.738C1026.81 497.738 1027.24 498.134 1027.24 498.625V505.515C1027.24 506.005 1026.81 506.403 1026.28 506.403C1026.03 506.403 1025.78 506.31 1025.6 506.143C1025.42 505.977 1025.32 505.751 1025.32 505.516V498.625ZM1028.77 508.072C1028.49 507.979 1028.17 507.769 1028.17 507.337C1028.16 507.243 1028.18 507.15 1028.22 507.063C1028.26 506.975 1028.31 506.895 1028.38 506.828C1028.45 506.761 1028.54 506.707 1028.63 506.67C1028.72 506.633 1028.82 506.614 1028.92 506.613C1029.08 506.613 1029.16 506.636 1029.24 506.66C1029.4 506.706 1029.51 506.73 1029.65 506.73C1029.99 506.73 1030.15 506.671 1030.33 506.356L1030.39 506.216L1028.08 501.265C1028.02 501.134 1027.99 500.996 1027.98 500.855C1027.98 500.354 1028.39 500.004 1028.92 500.004C1029.4 500.004 1029.68 500.249 1029.85 500.669L1031.31 504.313L1032.73 500.681C1032.88 500.307 1033.16 500.004 1033.65 500.004C1034.15 500.004 1034.56 500.354 1034.56 500.821C1034.56 500.961 1034.51 501.16 1034.47 501.241L1032.11 506.484C1031.54 507.757 1030.97 508.236 1029.82 508.236C1029.39 508.236 1029.09 508.178 1028.77 508.072Z" fill="#0E101A"/>
<mask id="mask1_0_1" style="mask-type:luminance" maskUnits="userSpaceOnUse" x="907" y="414" width="51" height="17">
<path d="M957.358 425.488C957.296 425.488 957.171 425.55 957.171 425.675C956.672 427.111 955.985 427.986 955.422 427.986C955.11 427.986 954.986 427.61 954.986 427.049C954.986 425.613 955.86 422.553 956.297 421.18C956.359 420.992 956.359 420.867 956.359 420.743C956.359 420.368 956.109 420.119 955.61 420.119C955.048 420.119 954.362 420.369 953.799 421.43C953.611 420.493 952.925 420.057 952.05 420.057C950.989 420.057 949.99 420.743 949.179 421.805C948.367 422.867 947.367 423.241 946.681 423.054C947.18 421.743 947.43 420.806 947.43 420.119C947.43 418.995 946.868 418.308 945.994 418.308C944.621 418.308 943.871 419.619 943.871 420.993C943.871 422.055 944.371 423.116 945.37 423.679C944.496 425.676 943.185 427.487 942.747 427.487C942.123 427.487 941.935 424.428 941.998 422.18C941.998 420.932 942.123 420.869 942.123 420.494C942.123 420.244 941.998 420.119 941.436 420.119C940.125 420.119 939.688 421.244 939.625 422.554C939.625 423.054 939.5 423.554 939.375 423.99C938.813 425.988 937.689 427.487 936.94 427.487C936.565 427.487 936.503 427.112 936.503 426.676C936.503 425.24 937.315 423.429 937.315 421.93C937.315 420.806 936.816 420.119 935.879 420.119C934.817 420.119 933.319 421.43 932.008 423.865C932.445 421.992 932.632 420.182 931.321 420.182C931.009 420.182 930.76 420.244 930.509 420.369C930.322 420.432 930.197 420.619 930.259 420.806C930.384 422.804 928.636 427.862 927.012 427.862C926.7 427.862 926.576 427.549 926.576 427.05C926.576 425.614 927.45 422.617 927.887 421.181C927.949 420.993 927.949 420.868 927.949 420.682C927.949 420.307 927.699 420.12 927.2 420.12C926.638 420.12 925.952 420.37 925.389 421.431C925.201 420.494 924.515 420.058 923.64 420.058C922.142 420.058 920.519 421.619 919.832 423.616C918.895 426.302 916.897 428.923 914.275 428.923C911.902 428.923 910.654 426.926 910.654 423.804C910.341 419.371 913.65 415.686 916.086 415.686C917.272 415.686 917.834 416.436 917.834 417.56C917.834 418.933 917.085 419.62 917.085 420.12C917.085 420.308 917.21 420.433 917.46 420.433C918.522 420.433 919.77 419.184 919.77 417.436C919.77 415.687 918.397 414.564 915.962 414.564C911.903 414.561 907.782 418.62 907.782 423.864C907.782 428.048 909.842 430.545 913.401 430.545C915.837 430.545 917.959 428.671 919.084 426.424C919.209 428.235 920.02 429.233 921.331 429.233C922.456 429.233 923.391 428.546 924.078 427.359C924.328 428.608 925.077 429.17 925.952 429.17C927.013 429.17 927.888 428.484 928.761 427.234C928.761 428.234 928.949 429.108 929.823 429.108C930.198 429.108 930.697 429.045 930.76 428.671C931.634 424.988 933.881 421.991 934.506 421.991C934.693 421.991 934.756 422.178 934.756 422.427C934.756 423.427 934.069 425.487 934.069 426.798C934.069 428.234 934.693 429.17 935.943 429.17C937.316 429.17 938.752 427.484 939.626 424.987C939.939 427.297 940.563 429.17 941.562 429.17C942.748 429.17 944.934 426.61 946.245 423.926C946.744 423.988 947.556 423.988 948.243 423.427C947.93 424.238 947.744 425.113 947.744 425.987C947.744 428.485 948.929 429.171 949.991 429.171C951.116 429.171 952.051 428.485 952.738 427.298C952.988 428.36 953.55 429.109 954.612 429.109C956.298 429.109 957.796 427.36 957.796 425.987C957.733 425.738 957.545 425.488 957.358 425.488ZM922.33 427.861C921.643 427.861 921.393 427.174 921.393 426.175C921.393 424.426 922.579 421.429 923.891 421.429C924.452 421.429 924.64 422.116 924.64 422.928C924.64 424.676 923.516 427.861 922.33 427.861ZM945.681 422.553C945.245 422.054 945.12 421.429 945.12 420.805C945.12 420.056 945.37 419.494 945.681 419.494C945.994 419.494 946.118 419.807 946.118 420.243C946.119 420.93 945.869 421.992 945.681 422.553ZM950.99 427.861C950.303 427.861 950.053 427.049 950.053 426.175C950.053 424.489 951.239 421.429 952.55 421.429C953.112 421.429 953.3 422.116 953.3 422.928C953.3 424.676 952.175 427.861 950.99 427.861Z" fill="white"/>
</mask>
<g mask="url(#mask1_0_1)">
<path d="M957.92 413.687H907.594V431.357H957.92V413.687Z" fill="url(#paint1_linear_0_1)"/>
</g>
<defs>
<filter id="filter0_f_0_1" x="128" y="95" width="1065" height="1064" filterUnits="userSpaceOnUse" color-interpolation-filters="sRGB">
<feFlood flood-opacity="0" result="BackgroundImageFix"/>
<feBlend mode="normal" in="SourceGraphic" in2="BackgroundImageFix" result="shape"/>
<feGaussianBlur stdDeviation="175" result="effect1_foregroundBlur_0_1"/>
</filter>
<filter id="filter1_f_0_1" x="483" y="272" width="868" height="868" filterUnits="userSpaceOnUse" color-interpolation-filters="sRGB">
<feFlood flood-opacity="0" result="BackgroundImageFix"/>
<feBlend mode="normal" in="SourceGraphic" in2="BackgroundImageFix" result="shape"/>
<feGaussianBlur stdDeviation="175" result="effect1_foregroundBlur_0_1"/>
</filter>
<filter id="filter2_f_0_1" x="355" y="-51" width="948" height="948" filterUnits="userSpaceOnUse" color-interpolation-filters="sRGB">
<feFlood flood-opacity="0" result="BackgroundImageFix"/>
<feBlend mode="normal" in="SourceGraphic" in2="BackgroundImageFix" result="shape"/>
<feGaussianBlur stdDeviation="175" result="effect1_foregroundBlur_0_1"/>
</filter>
<filter id="filter3_d_0_1" x="531" y="220.677" width="163.092" height="163.092" filterUnits="userSpaceOnUse" color-interpolation-filters="sRGB">
<feFlood flood-opacity="0" result="BackgroundImageFix"/>
<feColorMatrix in="SourceAlpha" type="matrix" values="0 0 0 0 0 0 0 0 0 0 0 0 0 0 0 0 0 0 127 0" result="hardAlpha"/>
<feOffset dy="18"/>
<feGaussianBlur stdDeviation="12"/>
<feComposite in2="hardAlpha" operator="out"/>
<feColorMatrix type="matrix" values="0 0 0 0 0.8 0 0 0 0 0.878431 0 0 0 0 1 0 0 0 0.5 0"/>
<feBlend mode="normal" in2="BackgroundImageFix" result="effect1_dropShadow_0_1"/>
<feBlend mode="normal" in="SourceGraphic" in2="effect1_dropShadow_0_1" result="shape"/>
</filter>
<filter id="filter4_d_0_1" x="547.788" y="227.465" width="129.516" height="84.7579" filterUnits="userSpaceOnUse" color-interpolation-filters="sRGB">
<feFlood flood-opacity="0" result="BackgroundImageFix"/>
<feColorMatrix in="SourceAlpha" type="matrix" values="0 0 0 0 0 0 0 0 0 0 0 0 0 0 0 0 0 0 127 0" result="hardAlpha"/>
<feOffset dy="8"/>
<feGaussianBlur stdDeviation="10"/>
<feComposite in2="hardAlpha" operator="out"/>
<feColorMatrix type="matrix" values="0 0 0 0 0.901961 0 0 0 0 0.941176 0 0 0 0 1 0 0 0 1 0"/>
<feBlend mode="normal" in2="BackgroundImageFix" result="effect1_dropShadow_0_1"/>
<feBlend mode="normal" in="SourceGraphic" in2="effect1_dropShadow_0_1" result="shape"/>
</filter>
<filter id="filter5_d_0_1" x="830" y="621" width="201.456" height="163.092" filterUnits="userSpaceOnUse" color-interpolation-filters="sRGB">
<feFlood flood-opacity="0" result="BackgroundImageFix"/>
<feColorMatrix in="SourceAlpha" type="matrix" values="0 0 0 0 0 0 0 0 0 0 0 0 0 0 0 0 0 0 127 0" result="hardAlpha"/>
<feOffset dy="18"/>
<feGaussianBlur stdDeviation="12"/>
<feComposite in2="hardAlpha" operator="out"/>
<feColorMatrix type="matrix" values="0 0 0 0 0.8 0 0 0 0 0.878431 0 0 0 0 1 0 0 0 0.5 0"/>
<feBlend mode="normal" in2="BackgroundImageFix" result="effect1_dropShadow_0_1"/>
<feBlend mode="normal" in="SourceGraphic" in2="effect1_dropShadow_0_1" result="shape"/>
</filter>
<filter id="filter6_d_0_1" x="944.631" y="697.974" width="18.2305" height="18.2304" filterUnits="userSpaceOnUse" color-interpolation-filters="sRGB">
<feFlood flood-opacity="0" result="BackgroundImageFix"/>
<feColorMatrix in="SourceAlpha" type="matrix" values="0 0 0 0 0 0 0 0 0 0 0 0 0 0 0 0 0 0 127 0" result="hardAlpha"/>
<feOffset dy="4"/>
<feGaussianBlur stdDeviation="2"/>
<feComposite in2="hardAlpha" operator="out"/>
<feColorMatrix type="matrix" values="0 0 0 0 0.8 0 0 0 0 0.878431 0 0 0 0 1 0 0 0 0.5 0"/>
<feBlend mode="normal" in2="BackgroundImageFix" result="effect1_dropShadow_0_1"/>
<feBlend mode="normal" in="SourceGraphic" in2="effect1_dropShadow_0_1" result="shape"/>
</filter>
<filter id="filter7_d_0_1" x="585" y="348" width="476.792" height="339.514" filterUnits="userSpaceOnUse" color-interpolation-filters="sRGB">
<feFlood flood-opacity="0" result="BackgroundImageFix"/>
<feColorMatrix in="SourceAlpha" type="matrix" values="0 0 0 0 0 0 0 0 0 0 0 0 0 0 0 0 0 0 127 0" result="hardAlpha"/>
<feOffset dy="18"/>
<feGaussianBlur stdDeviation="12"/>
<feComposite in2="hardAlpha" operator="out"/>
<feColorMatrix type="matrix" values="0 0 0 0 0.8 0 0 0 0 0.878431 0 0 0 0 1 0 0 0 0.5 0"/>
<feBlend mode="normal" in2="BackgroundImageFix" result="effect1_dropShadow_0_1"/>
<feBlend mode="normal" in="SourceGraphic" in2="effect1_dropShadow_0_1" result="shape"/>
</filter>
<linearGradient id="paint0_linear_0_1" x1="935.843" y1="695.416" x2="935.843" y2="745.531" gradientUnits="userSpaceOnUse">
<stop stop-color="#0066FF" stop-opacity="0.12"/>
<stop offset="1" stop-color="#0066FF" stop-opacity="0"/>
</linearGradient>
<linearGradient id="paint1_linear_0_1" x1="918.373" y1="407.197" x2="943.745" y2="434.229" gradientUnits="userSpaceOnUse">
<stop stop-color="#00C4CC"/>
<stop offset="0.9122" stop-color="#7A28EB"/>
<stop offset="1" stop-color="#7A28EB"/>
</linearGradient>
<clipPath id="clip0_0_1">
<rect width="16" height="16" fill="white" transform="translate(573.543 317.635)"/>
</clipPath>
<clipPath id="clip1_0_1">
<rect width="153.456" height="115.092" fill="white" transform="translate(854 627)"/>
</clipPath>
<clipPath id="clip2_0_1">
<rect width="16" height="16" fill="white" transform="translate(865.509 675.758)"/>
</clipPath>
</defs>
</svg>
