<svg width="20" height="20" viewBox="0 0 20 20" fill="none" xmlns="http://www.w3.org/2000/svg">
<path d="M7.5924 1.20027C8.20429 0.678828 8.51023 0.418105 8.83011 0.265216C9.56995 -0.0884052 10.43 -0.0884052 11.1699 0.265216C11.4898 0.418105 11.7957 0.678828 12.4076 1.20027C12.6511 1.40781 12.7729 1.51158 12.9029 1.59874C13.201 1.79854 13.5358 1.93721 13.8879 2.00672C14.0415 2.03705 14.201 2.04977 14.5199 2.07522C15.3213 2.13918 15.722 2.17115 16.0563 2.28923C16.8295 2.56233 17.4377 3.17051 17.7108 3.94371C17.8288 4.278 17.8608 4.6787 17.9248 5.48008C17.9502 5.79903 17.963 5.95851 17.9933 6.1121C18.0628 6.46417 18.2015 6.79896 18.4013 7.09706C18.4884 7.22711 18.5922 7.34887 18.7997 7.5924C19.3212 8.20429 19.5819 8.51023 19.7348 8.83011C20.0884 9.56995 20.0884 10.43 19.7348 11.1699C19.5819 11.4898 19.3212 11.7957 18.7997 12.4076C18.5922 12.6511 18.4884 12.7729 18.4013 12.9029C18.2015 13.201 18.0628 13.5358 17.9933 13.8879C17.963 14.0415 17.9502 14.201 17.9248 14.5199C17.8608 15.3213 17.8288 15.722 17.7108 16.0563C17.4377 16.8295 16.8295 17.4377 16.0563 17.7108C15.722 17.8288 15.3213 17.8608 14.5199 17.9248C14.201 17.9502 14.0415 17.963 13.8879 17.9933C13.5358 18.0628 13.201 18.2015 12.9029 18.4013C12.7729 18.4884 12.6511 18.5922 12.4076 18.7997C11.7957 19.3212 11.4898 19.5819 11.1699 19.7348C10.43 20.0884 9.56995 20.0884 8.83011 19.7348C8.51023 19.5819 8.20429 19.3212 7.5924 18.7997C7.34887 18.5922 7.22711 18.4884 7.09706 18.4013C6.79896 18.2015 6.46417 18.0628 6.1121 17.9933C5.95851 17.963 5.79903 17.9502 5.48008 17.9248C4.6787 17.8608 4.278 17.8288 3.94371 17.7108C3.17051 17.4377 2.56233 16.8295 2.28923 16.0563C2.17115 15.722 2.13918 15.3213 2.07522 14.5199C2.04977 14.201 2.03705 14.0415 2.00672 13.8879C1.93721 13.5358 1.79854 13.201 1.59874 12.9029C1.51158 12.7729 1.40781 12.6511 1.20027 12.4076C0.678828 11.7957 0.418105 11.4898 0.265216 11.1699C-0.0884052 10.43 -0.0884052 9.56995 0.265216 8.83011C0.418105 8.51023 0.678828 8.20429 1.20027 7.5924C1.40781 7.34887 1.51158 7.22711 1.59874 7.09706C1.79854 6.79896 1.93721 6.46417 2.00672 6.1121C2.03705 5.95851 2.04977 5.79903 2.07522 5.48008C2.13918 4.6787 2.17115 4.278 2.28923 3.94371C2.56233 3.17051 3.17051 2.56233 3.94371 2.28923C4.278 2.17115 4.6787 2.13918 5.48008 2.07522C5.79903 2.04977 5.95851 2.03705 6.1121 2.00672C6.46417 1.93721 6.79896 1.79854 7.09706 1.59874C7.22711 1.51158 7.34887 1.40781 7.5924 1.20027Z" fill="#C8F7F8"/>
<path d="M4.1665 10L7.49984 13.3333L14.9998 5.83334" stroke="#25DFE4" stroke-width="1.5"/>
</svg>
